<?xml version="1.0" encoding="iso-8859-1"?>
<!-- Generator: Adobe Illustrator 19.0.0, SVG Export Plug-In . SVG Version: 6.00 Build 0)  -->
<svg version="1.1" id="Capa_1" xmlns="http://www.w3.org/2000/svg" xmlns:xlink="http://www.w3.org/1999/xlink" x="0px" y="0px"
	 viewBox="0 0 512 512" style="enable-background:new 0 0 512 512;" xml:space="preserve">
<path style="fill:#303C42;" d="M446.898,197.555c-7.767-87.376-80.832-154.888-169.565-154.888
	c-69.885,0-132.083,42.763-157.717,106.854c-0.764-0.016-1.518-0.188-2.283-0.188C52.635,149.333,0,201.969,0,266.667
	S52.635,384,117.333,384H416c52.938,0,96-43.063,96-96C512,245.932,484.632,210.497,446.898,197.555z"/>
<path style="fill:#F2F2F2;" d="M416,362.667H117.333c-52.938,0-96-43.063-96-96s43.063-96,96-96c20.49,0,40.958,6.833,57.635,19.229
	c4.75,3.521,11.438,2.521,14.927-2.198c3.51-4.729,2.531-11.406-2.198-14.927c-13.688-10.174-29.552-16.961-46.055-20.513
	C165.284,99.141,218.111,64,277.333,64c75.413,0,137.96,55.694,147.702,128.913c-3.02-0.288-5.941-0.913-9.035-0.913
	c-5.896,0-10.667,4.771-10.667,10.667s4.771,10.667,10.667,10.667c41.167,0,74.667,33.5,74.667,74.667S457.167,362.667,416,362.667z
	"/>
<path style="opacity:0.1;enable-background:new    ;" d="M439.819,217.589c11.583,13.159,18.848,30.214,18.848,49.078
	c0,41.167-33.5,74.667-74.667,74.667H85.333c-12.805,0-24.984-2.622-36.163-7.191c17.409,17.586,41.518,28.525,68.163,28.525H416
	c41.167,0,74.667-33.5,74.667-74.667C490.667,255.21,469.272,227.595,439.819,217.589z"/>
<circle style="fill:#303C42;" cx="266.667" cy="352" r="117.333"/>
<circle style="fill:#1E88E5;" cx="266.667" cy="352" r="96"/>
<path style="fill:#303C42;" d="M301.792,365.792l-24.458,24.458V288c0-5.896-4.771-10.667-10.667-10.667
	c-5.896,0-10.667,4.771-10.667,10.667v102.25l-24.458-24.458c-4.167-4.167-10.917-4.167-15.083,0
	c-4.167,4.167-4.167,10.917,0,15.083l42.667,42.667c2.083,2.083,4.813,3.125,7.542,3.125c2.729,0,5.458-1.042,7.542-3.125
	l42.667-42.667c4.167-4.167,4.167-10.917,0-15.083C312.708,361.625,305.958,361.625,301.792,365.792z"/>
<linearGradient id="SVGID_1_" gradientUnits="userSpaceOnUse" x1="-44.6508" y1="639.6043" x2="-23.7055" y2="629.8376" gradientTransform="matrix(21.3333 0 0 -21.3333 996.3334 13791.667)">
	<stop  offset="0" style="stop-color:#FFFFFF;stop-opacity:0.2"/>
	<stop  offset="1" style="stop-color:#FFFFFF;stop-opacity:0"/>
</linearGradient>
<path style="fill:url(#SVGID_1_);" d="M446.898,197.555c-7.767-87.376-80.832-154.888-169.565-154.888
	c-69.885,0-132.083,42.763-157.717,106.854c-0.764-0.016-1.518-0.188-2.283-0.188C52.635,149.333,0,201.969,0,266.667
	S52.635,384,117.333,384h36.548c13.977,49.173,59.191,85.333,112.785,85.333s98.809-36.16,112.785-85.333H416
	c52.938,0,96-43.063,96-96C512,245.932,484.632,210.497,446.898,197.555z"/>
<g>
</g>
<g>
</g>
<g>
</g>
<g>
</g>
<g>
</g>
<g>
</g>
<g>
</g>
<g>
</g>
<g>
</g>
<g>
</g>
<g>
</g>
<g>
</g>
<g>
</g>
<g>
</g>
<g>
</g>
</svg>
